<?xml version="1.0" standalone="no"?>
<!DOCTYPE svg PUBLIC "-//W3C//DTD SVG 1.1//EN" "http://www.w3.org/Graphics/SVG/1.1/DTD/svg11.dtd" >
<svg xmlns="http://www.w3.org/2000/svg">
<metadata></metadata>
<defs>
<font id="xeronregular" horiz-adv-x="900" >
<font-face units-per-em="1000" ascent="800" descent="-200" />
<missing-glyph horiz-adv-x="500" />
<glyph horiz-adv-x="0" />
<glyph unicode="&#xd;" horiz-adv-x="500" />
<glyph unicode=" "  horiz-adv-x="500" />
<glyph unicode="&#x09;" horiz-adv-x="500" />
<glyph unicode="&#xa0;" horiz-adv-x="500" />
<glyph unicode="!" horiz-adv-x="350" d="M300 200h-250v550h250v-550zM300 0h-250v150h250v-150z" />
<glyph unicode="&#x22;" horiz-adv-x="450" d="M250 400h1q20 0 34.5 -14.5t14.5 -34.5v-51h100v250h-150v-150zM200 550h-150v-150h1q20 0 34.5 -14.5t14.5 -34.5v-51h100v250z" />
<glyph unicode="#" />
<glyph unicode="$" d="M850 122q0 -48 -37 -85t-85 -37h-178v-150h-200v150h-300v150h526q24 0 24 25t-24 25h-404q-50 0 -86 36t-36 86v106q0 49 36.5 85.5t85.5 36.5h178v150h200v-150h300v-150h-526q-24 0 -24 -25t24 -25h404q48 0 85 -37t37 -85v-106z" />
<glyph unicode="%" />
<glyph unicode="&#x26;" d="M850 122q0 -48 -37 -85t-85 -37h-556q-50 0 -86 36t-36 86v31q0 50 37 86t87 36q-51 2 -87.5 36.5t-36.5 85.5v31q0 50 36 86t86 36h428v-150h-276q-24 0 -24 -25t24 -25h76v-150h-76q-24 0 -24 -25t24 -25h227q20 0 34.5 15t14.5 35h-150v150h400v-228z" />
<glyph unicode="'" horiz-adv-x="250" d="M200 550h-150v-150h1q20 0 34.5 -14.5t14.5 -34.5v-51h100v250z" />
<glyph unicode="(" horiz-adv-x="450" d="M400 -150h-228q-49 0 -85.5 36.5t-36.5 85.5v606q0 48 37 85t85 37h228v-150h-51q-20 0 -34.5 -14.5t-14.5 -34.5v-452q0 -20 14.5 -34.5t34.5 -14.5h51v-150z" />
<glyph unicode=")" horiz-adv-x="450" d="M50 -150v150h51q20 0 34.5 14.5t14.5 34.5v452q0 20 -14.5 34.5t-34.5 14.5h-51v150h228q48 0 85 -37t37 -85v-606q0 -49 -37 -86q-36 -36 -85 -36h-228z" />
<glyph unicode="*" />
<glyph unicode="+" horiz-adv-x="550" d="M350 50h-150v150h-150v150h150v150h150v-150h150v-150h-150v-150z" />
<glyph unicode="," horiz-adv-x="250" d="M50 150v-150h2q20 0 34 -14.5t14 -34.5v-51h100v250h-150z" />
<glyph unicode="-" horiz-adv-x="750" d="M700 200h-650v150h650v-150z" />
<glyph unicode="." horiz-adv-x="250" d="M50 150v-150h150v150h-150z" />
<glyph unicode="/" horiz-adv-x="550" d="M500 700l-200 -850h-250l200 850h250z" />
<glyph unicode="0" d="M850 122q0 -48 -37 -85t-85 -37h-556q-50 0 -86 36t-36 86v306q0 48 37 85t85 37h556q48 0 85 -37t37 -85v-306zM600 199v152q0 20 -14.5 34.5t-34.5 14.5h-202q-20 0 -34.5 -14.5t-14.5 -34.5v-152q0 -20 14.5 -34.5t34.5 -14.5h202q20 0 34.5 14.5t14.5 34.5z" />
<glyph unicode="1" horiz-adv-x="450" d="M400 0h-250v351q0 20 -14.5 34.5t-34.5 14.5h-51v150h228q48 0 85 -37t37 -85v-428z" />
<glyph unicode="2" d="M850 0h-800v228q0 48 37 85t85 37h404q24 0 24 25t-24 25h-526v150h678q48 0 85 -37t37 -85v-106q0 -48 -37 -85t-85 -37h-379q-20 0 -34.5 -14.5t-14.5 -34.5v-1h550v-150z" />
<glyph unicode="3" d="M850 122q0 -48 -37 -85t-85 -37h-678v150h526q24 0 24 25t-24 25h-526v150h526q24 0 24 25t-24 25h-526v150h678q48 0 85 -37t37 -85v-306z" />
<glyph unicode="4" d="M850 0h-250v200h-428q-50 0 -86 36t-36 86v228h250v-151q0 -20 14.5 -34.5t34.5 -14.5h251v200h250v-550z" />
<glyph unicode="5" d="M850 122v106q0 49 -37 86q-36 36 -85 36h-379q-20 0 -34.5 14.5t-14.5 34.5v1h550v150h-800v-228q0 -50 36 -86t86 -36h403q25 0 25 -25t-25 -25h-525v-150h678q48 0 85 37t37 85z" />
<glyph unicode="6" d="M850 122q0 -48 -37 -85t-85 -37h-556q-50 0 -86 36t-36 86v306q0 50 36 86t86 36h428v-150h-251q-20 0 -34.5 -14.5t-14.5 -34.5v-152q0 -20 14.5 -34.5t34.5 -14.5h227q24 0 24 25t-24 25h-226v150h378q48 0 85 -37t37 -85v-106z" />
<glyph unicode="7" d="M850 0h-250v351q0 20 -14.5 34.5t-34.5 14.5h-202q-20 0 -34.5 -14.5t-14.5 -34.5v-51h-250v128q0 48 37 85t85 37h556q48 0 85 -37t37 -85v-428z" />
<glyph unicode="8" d="M850 122q0 -48 -37 -85t-85 -37h-556q-50 0 -86 36t-36 86v31q0 50 37 86t87 36q-50 0 -87 36t-37 86v31q0 50 36 86t86 36h556q48 0 85 -37t37 -85v-31q0 -50 -37 -86t-87 -36q50 0 87 -36t37 -86v-31zM600 375q0 25 -24 25h-252q-24 0 -24 -25t24 -25h252q24 0 24 25z M600 175q0 25 -24 25h-252q-24 0 -24 -25t24 -25h252q24 0 24 25z" />
<glyph unicode="9" d="M50 428q0 48 37 85t85 37h556q50 0 86 -36t36 -86v-306q0 -50 -36 -86t-86 -36h-428v150h251q20 0 34.5 14.5t14.5 34.5v152q0 20 -14.5 34.5t-34.5 14.5h-227q-24 0 -24 -25t24 -25h226v-150h-378q-48 0 -85 37t-37 85v106z" />
<glyph unicode=":" horiz-adv-x="250" d="M50 350v-150h150v150h-150zM50 150v-150h150v150h-150z" />
<glyph unicode=";" horiz-adv-x="250" d="M50 150v-150h2q20 0 34 -14.5t14 -34.5v-51h100v250h-150zM200 200v150h-150v-150h150z" />
<glyph unicode="&#x3c;" />
<glyph unicode="=" horiz-adv-x="750" d="M700 300h-650v150h650v-150zM700 100h-650v150h650v-150z" />
<glyph unicode="&#x3e;" />
<glyph unicode="?" d="M850 428v-106q0 -49 -36.5 -85.5t-85.5 -36.5h-404q-24 0 -24 -25v-25h-250v78q0 49 36.5 85.5t85.5 36.5h404q24 0 24 25t-24 25h-526v150h678q50 0 86 -36t36 -86zM50 100v-100h250v100h-250z" />
<glyph unicode="@" horiz-adv-x="850" d="M800 223q0 -29 -22 -51t-51 -22h-227v125q0 25 -24 25h-102q-24 0 -24 -25v-1q0 -24 24 -24h76v-100h-127q-29 0 -51 22t-22 51v104q0 29 22 51t51 22h204q29 0 51 -22t22 -51v-77h76q24 0 24 24v201q0 25 -24 25h-502q-24 0 -24 -25v-401q0 -24 24 -24h426v-100h-477 q-29 0 -51 22t-22 51v503q0 30 21.5 52t51.5 22h604q30 0 51.5 -22t21.5 -52v-303z" />
<glyph unicode="A" d="M850 0v428q0 48 -37 85t-85 37h-556q-50 0 -86 -36t-36 -86v-306q0 -50 36 -86t86 -36h378v150h-201q-20 0 -34.5 14.5t-14.5 34.5v152q0 20 14.5 34.5t34.5 14.5h202q20 0 34.5 -14.5t14.5 -34.5v-351h250z" />
<glyph unicode="B" d="M850 122v306q0 48 -37 85t-85 37h-378v-150h201q20 0 34.5 -14.5t14.5 -34.5v-152q0 -20 -14.5 -34.5t-34.5 -14.5h-202q-20 0 -34.5 14.5t-14.5 34.5v551h-250v-628q0 -50 36 -86t86 -36h556q50 0 86 36t36 86z" />
<glyph unicode="C" d="M850 122v128h-250v-51q0 -20 -14.5 -34.5t-34.5 -14.5h-202q-20 0 -34.5 14.5t-14.5 34.5v152q0 20 14.5 34.5t34.5 14.5h202q20 0 34.5 -14.5t14.5 -34.5v-51h250v128q0 48 -37 85t-85 37h-556q-50 0 -86 -36t-36 -86v-306q0 -49 37 -86q36 -36 85 -36h556q48 0 85 37 t37 85z" />
<glyph unicode="D" d="M50 122q0 -50 36 -86t86 -36h556q49 0 85.5 36.5t36.5 85.5v628h-250v-551q0 -20 -14.5 -34.5t-34.5 -14.5h-202q-20 0 -34.5 14.5t-14.5 34.5v152q0 20 14.5 34.5t34.5 14.5h201v150h-378q-49 0 -85.5 -36.5t-36.5 -85.5v-306z" />
<glyph unicode="E" d="M850 200v228q0 49 -37 86q-36 36 -85 36h-556q-50 0 -86 -36t-36 -86v-306q0 -49 37 -86q36 -36 85 -36h428v150h-251q-20 0 -34.5 14.5t-14.5 34.5v152q0 20 14.5 34.5t34.5 14.5h202q20 0 34.5 -14.5t14.5 -34.5v-151h250z" />
<glyph unicode="F" d="M850 200v228q0 48 -37 85t-85 37h-556q-50 0 -86 -36t-36 -86v-628h250v200h300v150h-300v201q0 20 14.5 34.5t34.5 14.5h202q20 0 34.5 -14.5t14.5 -34.5v-151h250z" />
<glyph unicode="G" d="M850 -78v506q0 48 -37 85t-85 37h-556q-50 0 -86 -36t-36 -86v-306q0 -50 36 -86t86 -36h378v150h-201q-20 0 -34.5 14.5t-14.5 34.5v152q0 20 14.5 34.5t34.5 14.5h202q20 0 34.5 -14.5t14.5 -34.5v-352q0 -20 -14.5 -34.5t-34.5 -14.5h-251v-150h428q48 0 85 37t37 85z " />
<glyph unicode="H" d="M850 0v428q0 49 -37 86q-36 36 -85 36h-428v200h-250v-750h250v400h251q20 0 34.5 -14.5t14.5 -34.5v-351h250z" />
<glyph unicode="I" horiz-adv-x="350" d="M300 0v550h-250v-550h250z" />
<glyph unicode="J" horiz-adv-x="350" d="M300 -78q0 -49 -37 -86q-36 -36 -85 -36h-428v150h251q20 0 34.5 14.5t14.5 34.5v551h250v-628z" />
<glyph unicode="K" d="M850 0h-250v151q0 20 -14.5 34.5t-34.5 14.5h-251v-200h-250v750h250v-400h50v78q0 50 36 86t86 36h378v-150h-251q-20 0 -34.5 -14.5t-14.5 -34.5v-1h178q48 0 85 -37t37 -85v-228z" />
<glyph unicode="L" horiz-adv-x="450" d="M400 0h-228q-50 0 -86 36t-36 86v628h250v-551q0 -20 14.5 -34.5t34.5 -14.5h51v-150z" />
<glyph unicode="M" horiz-adv-x="1250" d="M1200 0v428q0 48 -37 85t-85 37h-1028v-550h250v400h200v-400h250v400h151q20 0 34.5 -14.5t14.5 -34.5v-351h250z" />
<glyph unicode="N" d="M850 0h-250v351q0 20 -14.5 34.5t-34.5 14.5h-251v-400h-250v550h678q48 0 85 -37t37 -85v-428z" />
<glyph unicode="O" d="M850 122q0 -48 -37 -85t-85 -37h-556q-50 0 -86 36t-36 86v306q0 48 37 85t85 37h556q48 0 85 -37t37 -85v-306zM600 199v152q0 20 -14.5 34.5t-34.5 14.5h-202q-20 0 -34.5 -14.5t-14.5 -34.5v-152q0 -20 14.5 -34.5t34.5 -14.5h202q20 0 34.5 14.5t14.5 34.5z" />
<glyph unicode="P" d="M850 428v-306q0 -49 -36.5 -85.5t-85.5 -36.5h-378v150h201q20 0 34.5 14.5t14.5 34.5v152q0 20 -14.5 34.5t-34.5 14.5h-202q-20 0 -34.5 -14.5t-14.5 -34.5v-551h-250v628q0 49 36.5 85.5t85.5 36.5h556q50 0 86 -36t36 -86z" />
<glyph unicode="Q" d="M50 428v-306q0 -49 37 -86q36 -36 85 -36h378v150h-201q-20 0 -34.5 14.5t-14.5 34.5v152q0 20 14.5 34.5t34.5 14.5h202q20 0 34.5 -14.5t14.5 -34.5v-551h250v628q0 49 -37 86q-36 36 -85 36h-556q-50 0 -86 -36t-36 -86z" />
<glyph unicode="R" d="M850 -200h-378q-49 0 -85.5 36.5t-36.5 85.5v82q0 59 43.5 102.5t102.5 43.5h55q20 0 34.5 14.5t14.5 34.5v152q0 20 -14.5 34.5t-34.5 14.5h-202q-20 0 -34.5 -14.5t-14.5 -34.5v-351h-250v428q0 49 36.5 85.5t85.5 36.5h556q48 0 85 -37t37 -85v-306q0 -48 -37 -85 t-85 -37h-154q-24 0 -24 -25t24 -25h276v-150z" />
<glyph unicode="S" d="M850 122q0 -48 -37 -85t-85 -37h-678v150h526q24 0 24 25t-24 25h-404q-50 0 -86 36t-36 86v106q0 50 36 86t86 36h678v-150h-526q-24 0 -24 -25t24 -25h404q48 0 85 -37t37 -85v-106z" />
<glyph unicode="T" d="M850 400v150h-800v-150h275v-400h250v400h275z" />
<glyph unicode="U" d="M850 0v550h-250v-400h-251q-20 0 -34.5 14.5t-14.5 34.5v351h-250v-428q0 -50 36 -86t86 -36h678z" />
<glyph unicode="V" d="M850 400v150h-278q-49 0 -85.5 -36.5t-36.5 -85.5v-229q0 -20 -14.5 -34.5t-34.5 -14.5h-52q-20 0 -34.5 14.5t-14.5 34.5v351h-250v-428q0 -50 36 -86t86 -36h406q48 0 85 37.5t37 84.5v229q0 20 14.5 34.5t34.5 14.5h101z" />
<glyph unicode="W" horiz-adv-x="1250" d="M1200 550h-250v-351q0 -20 -14.5 -34.5t-34.5 -14.5h-151v400h-250v-400h-200v400h-250v-550h1028q49 0 85.5 36.5t36.5 85.5v428z" />
<glyph unicode="X" d="M850 0v228q0 48 -37 85t-85 37h-28v1q0 20 14.5 34.5t34.5 14.5h101v150h-228q-50 0 -86 -36t-36 -86v-78h-100v78q0 49 -37 86q-36 36 -85 36h-228v-150h101q20 0 34.5 -14.5t14.5 -34.5v-1h-28q-50 0 -86 -36t-36 -86v-228h250v151q0 20 14.5 34.5t34.5 14.5h202 q20 0 34.5 -14.5t14.5 -34.5v-151h250z" />
<glyph unicode="Y" d="M850 -78v628h-250v-400h-251q-20 0 -34.5 14.5t-14.5 34.5v351h-250v-428q0 -50 36 -86t86 -36h428v-1q0 -20 -14.5 -34.5t-34.5 -14.5h-251v-150h428q48 0 85 37t37 85z" />
<glyph unicode="Z" d="M850 0h-800v228q0 48 37 85t85 37h404q24 0 24 25t-24 25h-526v150h678q48 0 85 -37t37 -85v-106q0 -48 -37 -85t-85 -37h-379q-20 0 -34.5 -14.5t-14.5 -34.5v-1h550v-150z" />
<glyph unicode="[" horiz-adv-x="450" d="M400 -150h-350v850h350v-150h-100v-550h100v-150z" />
<glyph unicode="\" horiz-adv-x="550" d="M50 700l200 -850h250l-200 850h-250z" />
<glyph unicode="]" horiz-adv-x="450" d="M50 -150h350v850h-350v-150h100v-550h-100v-150z" />
<glyph unicode="^" horiz-adv-x="550" d="M500 400h-150l-75 75l-75 -75h-150l150 150h150z" />
<glyph unicode="_" horiz-adv-x="750" d="M700 0h-650v150h650v-150z" />
<glyph unicode="`" horiz-adv-x="250" d="M200 550h-150v-150h1q20 0 34.5 -14.5t14.5 -34.5v-51h100v250z" />
<glyph unicode="a" d="M850 0v428q0 48 -37 85t-85 37h-556q-50 0 -86 -36t-36 -86v-306q0 -50 36 -86t86 -36h378v150h-201q-20 0 -34.5 14.5t-14.5 34.5v152q0 20 14.5 34.5t34.5 14.5h202q20 0 34.5 -14.5t14.5 -34.5v-351h250z" />
<glyph unicode="b" d="M850 122v306q0 49 -37 86q-36 36 -85 36h-378v-150h201q20 0 34.5 -14.5t14.5 -34.5v-152q0 -20 -14.5 -34.5t-34.5 -14.5h-202q-20 0 -34.5 14.5t-14.5 34.5v551h-250v-628q0 -49 36 -86q37 -36 86 -36h556q50 0 86 36t36 86z" />
<glyph unicode="c" d="M850 122v128h-250v-51q0 -20 -14.5 -34.5t-34.5 -14.5h-202q-20 0 -34.5 14.5t-14.5 34.5v152q0 20 14.5 34.5t34.5 14.5h202q20 0 34.5 -14.5t14.5 -34.5v-51h250v128q0 48 -37 85t-85 37h-556q-50 0 -86 -36t-36 -86v-306q0 -49 37 -86q36 -36 85 -36h556q48 0 85 37 t37 85z" />
<glyph unicode="d" d="M50 122q0 -50 36 -86t86 -36h556q49 0 85.5 36.5t36.5 85.5v628h-250v-551q0 -20 -14.5 -34.5t-34.5 -14.5h-202q-20 0 -34.5 14.5t-14.5 34.5v152q0 20 14.5 34.5t34.5 14.5h201v150h-378q-49 0 -85.5 -36.5t-36.5 -85.5v-306z" />
<glyph unicode="e" d="M850 200v228q0 48 -37 85t-85 37h-556q-50 0 -86 -36t-36 -86v-306q0 -50 36 -86t86 -36h428v150h-251q-20 0 -34.5 14.5t-14.5 34.5v152q0 20 14.5 34.5t34.5 14.5h202q20 0 34.5 -14.5t14.5 -34.5v-1h-250v-150h500z" />
<glyph unicode="f" d="M850 200v228q0 49 -37 86q-36 36 -85 36h-556q-50 0 -86 -36t-36 -86v-628h250v200h300v150h-300v201q0 20 14.5 34.5t34.5 14.5h202q20 0 34.5 -14.5t14.5 -34.5v-151h250z" />
<glyph unicode="g" d="M850 -78v506q0 49 -37 86q-36 36 -85 36h-556q-50 0 -86 -36t-36 -86v-306q0 -49 37 -86q36 -36 85 -36h378v150h-201q-20 0 -34.5 14.5t-14.5 34.5v152q0 20 14.5 34.5t34.5 14.5h202q20 0 34.5 -14.5t14.5 -34.5v-352q0 -20 -14.5 -34.5t-34.5 -14.5h-251v-150h428 q49 0 86 37q36 36 36 85z" />
<glyph unicode="h" d="M850 0v428q0 49 -37 86q-36 36 -85 36h-428v200h-250v-750h250v400h251q20 0 34.5 -14.5t14.5 -34.5v-351h250z" />
<glyph unicode="i" horiz-adv-x="350" d="M300 400h-250v150h250v-150zM300 0h-250v350h250v-350z" />
<glyph unicode="j" horiz-adv-x="350" d="M300 -78q0 -49 -37 -86q-36 -36 -85 -36h-428v150h251q20 0 34.5 14.5t14.5 34.5v551h250v-628z" />
<glyph unicode="k" d="M850 0h-250v151q0 20 -14.5 34.5t-34.5 14.5h-251v-200h-250v750h250v-400h50v78q0 50 36 86t86 36h378v-150h-251q-20 0 -34.5 -14.5t-14.5 -34.5v-1h178q48 0 85 -37t37 -85v-228z" />
<glyph unicode="l" horiz-adv-x="450" d="M400 0h-228q-50 0 -86 36t-36 86v628h250v-551q0 -20 14.5 -34.5t34.5 -14.5h51v-150z" />
<glyph unicode="m" horiz-adv-x="1250" d="M1200 0v428q0 49 -37 86q-36 36 -85 36h-1028v-550h250v400h200v-400h250v400h151q20 0 34.5 -14.5t14.5 -34.5v-351h250z" />
<glyph unicode="n" d="M850 0h-250v351q0 20 -14.5 34.5t-34.5 14.5h-251v-400h-250v550h678q48 0 85 -37t37 -85v-428z" />
<glyph unicode="o" d="M850 122q0 -48 -37 -85t-85 -37h-556q-50 0 -86 36t-36 86v306q0 48 37 85t85 37h556q48 0 85 -37t37 -85v-306zM600 199v152q0 20 -14.5 34.5t-34.5 14.5h-202q-20 0 -34.5 -14.5t-14.5 -34.5v-152q0 -20 14.5 -34.5t34.5 -14.5h202q20 0 34.5 14.5t14.5 34.5z" />
<glyph unicode="p" d="M850 428q0 50 -36 86t-86 36h-556q-49 0 -85.5 -36.5t-36.5 -85.5v-628h250v551q0 20 14.5 34.5t34.5 14.5h202q20 0 34.5 -14.5t14.5 -34.5v-152q0 -20 -14.5 -34.5t-34.5 -14.5h-201v-150h378q49 0 85.5 36.5t36.5 85.5v306z" />
<glyph unicode="q" d="M50 428v-306q0 -49 36 -86q37 -36 86 -36h378v150h-201q-20 0 -34.5 14.5t-14.5 34.5v152q0 20 14.5 34.5t34.5 14.5h202q20 0 34.5 -14.5t14.5 -34.5v-551h250v628q0 49 -37 86q-36 36 -85 36h-556q-50 0 -86 -36t-36 -86z" />
<glyph unicode="r" d="M850 300h-250v51q0 20 -14.5 34.5t-34.5 14.5h-202q-20 0 -34.5 -14.5t-14.5 -34.5v-351h-250v428q0 50 36 86t86 36h556q48 0 85 -37t37 -85v-128z" />
<glyph unicode="s" d="M850 122q0 -48 -37 -85t-85 -37h-678v150h526q24 0 24 25t-24 25h-404q-50 0 -86 36t-36 86v106q0 50 36 86t86 36h678v-150h-526q-24 0 -24 -25t24 -25h404q48 0 85 -37t37 -85v-106z" />
<glyph unicode="t" d="M850 122q0 -50 -36 -86t-86 -36h-556q-50 0 -86 36t-36 86v428h550v-150h-300v-201q0 -20 14.5 -34.5t34.5 -14.5h202q20 0 34.5 14.5t14.5 34.5v51h250v-128z" />
<glyph unicode="u" d="M850 0v550h-250v-400h-251q-20 0 -34.5 14.5t-14.5 34.5v351h-250v-428q0 -49 37 -86q36 -36 85 -36h678z" />
<glyph unicode="v" d="M850 400h-101q-20 0 -34.5 -14.5t-14.5 -34.5v-229q0 -48 -37 -85t-85 -37h-406q-50 0 -86 36t-36 86v428h250v-351q0 -20 14.5 -34.5t34.5 -14.5h52q20 0 34.5 14.5t14.5 34.5v229q0 49 36.5 85.5t85.5 36.5h278v-150z" />
<glyph unicode="w" horiz-adv-x="1250" d="M1200 550h-250v-351q0 -20 -14.5 -34.5t-34.5 -14.5h-151v400h-250v-400h-200v400h-250v-550h1028q49 0 85.5 36.5t36.5 85.5v428z" />
<glyph unicode="x" d="M850 0v228q0 48 -37 85t-85 37h-28v1q0 20 14.5 34.5t34.5 14.5h101v150h-228q-50 0 -86 -36t-36 -86v-78h-100v78q0 48 -37 85t-85 37h-228v-150h101q20 0 34.5 -14.5t14.5 -34.5v-1h-28q-50 0 -86 -36t-36 -86v-228h250v151q0 20 14.5 34.5t34.5 14.5h202 q20 0 34.5 -14.5t14.5 -34.5v-151h250z" />
<glyph unicode="y" d="M850 -78v628h-250v-400h-251q-20 0 -34.5 14.5t-14.5 34.5v351h-250v-428q0 -50 36 -86t86 -36h428v-1q0 -20 -14.5 -34.5t-34.5 -14.5h-251v-150h428q49 0 86 37q36 36 36 85z" />
<glyph unicode="z" d="M850 0h-800v228q0 48 37 85t85 37h404q24 0 24 25t-24 25h-526v150h678q48 0 85 -37t37 -85v-106q0 -48 -37 -85t-85 -37h-379q-20 0 -34.5 -14.5t-14.5 -34.5v-1h550v-150z" />
<glyph unicode="{" horiz-adv-x="577" d="M525 -150h-228q-49 0 -85.5 36.5t-36.5 85.5v181q0 50 -36.5 86t-86.5 36q52 2 87.5 36.5t35.5 85.5v181q0 50 36 86t86 36h228v-150h-51q-20 0 -34.5 -14.5t-14.5 -34.5v-177q0 -20 -14.5 -34.5t-34.5 -14.5q20 0 34.5 -14.5t14.5 -34.5v-177q0 -20 14.5 -34.5 t34.5 -14.5h51v-150z" />
<glyph unicode="|" horiz-adv-x="350" d="M300 -200h-250v950h250v-950z" />
<glyph unicode="}" horiz-adv-x="577" d="M52 -150v150h51q20 0 34.5 14.5t14.5 34.5v177q0 20 14.5 34.5t34.5 14.5q-20 0 -34.5 14.5t-14.5 34.5v177q0 20 -14.5 34.5t-34.5 14.5h-51v150h228q50 0 86 -36t36 -86v-181q0 -26 9.5 -47.5t26 -38t39 -26t48.5 -10.5q-50 0 -87 -36q-36 -36 -36 -86v-181 q0 -49 -37 -86q-36 -36 -85 -36h-228z" />
<glyph unicode="~" horiz-adv-x="450" d="M400 451q-61 -47 -102 -47q-15 0 -35 5q-6 2 -58 26q-36 17 -58 17q-48 0 -97 -48v100q52 48 107 48q26 0 75.5 -25t75.5 -25q39 0 92 48v-99z" />
<glyph unicode="&#xa0;" />
<glyph unicode="&#xa1;" horiz-adv-x="350" d="M300 350h-250v-550h250v550zM300 550h-250v-150h250v150z" />
<glyph unicode="&#xa2;" d="M850 122v128h-250v-51q0 -20 -14.5 -34.5t-34.5 -14.5h-202q-20 0 -34.5 14.5t-14.5 34.5v152q0 20 14.5 34.5t34.5 14.5h202q20 0 34.5 -14.5t14.5 -34.5v-51h250v128q0 49 -37 86q-36 36 -85 36h-178v150h-200v-150h-178q-50 0 -86 -36t-36 -86v-306q0 -50 36 -86 t86 -36h178v-150h200v150h178q48 0 85 37t37 85z" />
<glyph unicode="&#xa3;" d="M850 0h-800v150h150v50h-100v150h100v78q0 47 35 85h1q37 37 86 37h378v-150h-201q-47 0 -49 -49h150v-151h-150v-50h400v-150z" />
<glyph unicode="&#xa4;" />
<glyph unicode="&#xa5;" />
<glyph unicode="&#xa6;" />
<glyph unicode="&#xa7;" />
<glyph unicode="&#xa8;" />
<glyph unicode="&#xa9;" />
<glyph unicode="&#xaa;" />
<glyph unicode="&#xab;" />
<glyph unicode="&#xac;" />
<glyph unicode="&#xae;" />
<glyph unicode="&#xaf;" />
<glyph unicode="&#xb0;" />
<glyph unicode="&#xb1;" />
<glyph unicode="&#xb2;" />
<glyph unicode="&#xb3;" />
<glyph unicode="&#xb4;" />
<glyph unicode="&#xb5;" />
<glyph unicode="&#xb6;" />
<glyph unicode="&#xb7;" />
<glyph unicode="&#xb8;" />
<glyph unicode="&#xb9;" />
<glyph unicode="&#xba;" />
<glyph unicode="&#xbb;" />
<glyph unicode="&#xbc;" />
<glyph unicode="&#xbd;" />
<glyph unicode="&#xbe;" />
<glyph unicode="&#xbf;" />
<glyph unicode="&#xc0;" d="M850 0v428q0 49 -37 86q-36 36 -85 36h-556q-50 0 -86 -36t-36 -86v-306q0 -49 37 -86q36 -36 85 -36h378v150h-201q-20 0 -34.5 14.5t-14.5 34.5v152q0 20 14.5 34.5t34.5 14.5h202q20 0 34.5 -14.5t14.5 -34.5v-351h250zM450 800v-200h-100v26q0 20 -14.5 34.5 t-34.5 14.5h-1v125h150z" />
<glyph unicode="&#xc1;" d="M850 0v428q0 49 -37 86q-36 36 -85 36h-556q-50 0 -86 -36t-36 -86v-306q0 -49 37 -86q36 -36 85 -36h378v150h-201q-20 0 -34.5 14.5t-14.5 34.5v152q0 20 14.5 34.5t34.5 14.5h202q20 0 34.5 -14.5t14.5 -34.5v-351h250zM450 800v-200h100v26q0 20 14.5 34.5t34.5 14.5 h1v125h-150z" />
<glyph unicode="&#xc2;" d="M675 600l-150 150h-150l-150 -150h150l75 75l75 -75h150zM850 0v428q0 49 -37 86q-36 36 -85 36h-556q-50 0 -86 -36t-36 -86v-306q0 -49 37 -86q36 -36 85 -36h378v150h-201q-20 0 -34.5 14.5t-14.5 34.5v152q0 20 14.5 34.5t34.5 14.5h202q20 0 34.5 -14.5t14.5 -34.5 v-351h250z" />
<glyph unicode="&#xc3;" d="M625 647v99q-53 -48 -92 -48q-27 0 -76 25t-75 25q-55 0 -107 -48v-100q49 48 97 48q21 0 58 -17q26 -12 40.5 -18.5t17.5 -7.5q22 -5 35 -5q40 0 102 47zM850 0v428q0 49 -37 86q-36 36 -85 36h-556q-50 0 -86 -36t-36 -86v-306q0 -49 37 -86q36 -36 85 -36h378v150 h-201q-20 0 -34.5 14.5t-14.5 34.5v152q0 20 14.5 34.5t34.5 14.5h202q20 0 34.5 -14.5t14.5 -34.5v-351h250z" />
<glyph unicode="&#xc4;" d="M850 600v150h-150v-150h150zM200 600v150h-150v-150h150zM850 0v428q0 49 -37 86q-36 36 -85 36h-556q-50 0 -86 -36t-36 -86v-306q0 -49 37 -86q36 -36 85 -36h378v150h-201q-20 0 -34.5 14.5t-14.5 34.5v152q0 20 14.5 34.5t34.5 14.5h202q20 0 34.5 -14.5t14.5 -34.5 v-351h250z" />
<glyph unicode="&#xc5;" d="M550 675q0 31 -22 53t-53 22t-53 -22t-22 -53t22 -53t53 -22t53 22t22 53zM850 0v428q0 49 -37 86q-36 36 -85 36h-556q-50 0 -86 -36t-36 -86v-306q0 -49 37 -86q36 -36 85 -36h378v150h-201q-20 0 -34.5 14.5t-14.5 34.5v152q0 20 14.5 34.5t34.5 14.5h202 q20 0 34.5 -14.5t14.5 -34.5v-351h250z" />
<glyph unicode="&#xc6;" horiz-adv-x="1250" d="M1200 200v228q0 49 -37 86q-36 36 -85 36h-906q-50 0 -86 -36t-36 -86v-306q0 -50 36 -86t86 -36h278v150h-101q-20 0 -34.5 14.5t-14.5 34.5v152q0 20 14.5 34.5t34.5 14.5h102q20 0 34.5 -14.5t14.5 -34.5v-229q0 -50 36 -86t86 -36h328v150h-151q-20 0 -34.5 14.5 t-14.5 34.5v152q0 20 14.5 34.5t34.5 14.5h102q20 0 34.5 -14.5t14.5 -34.5v-1h-150v-150h400z" />
<glyph unicode="&#xc7;" d="M850 123v127h-250v-51q0 -20 -14.5 -34.5t-34.5 -14.5h-202q-20 0 -34.5 14.5t-14.5 34.5v153q0 20 14.5 34t34.5 14h202q20 0 34.5 -14t14.5 -34v-52h250v129q0 49 -37 85q-36 36 -85 36h-556q-50 0 -86 -36q-36 -35 -36 -85v-306q0 -49 36 -86q37 -37 86 -37h178v-1 q0 -20 -14.5 -34.5t-34.5 -14.5h-101v-150h228q49 0 86 37q36 36 36 85v78h178q49 0 85 37q37 37 37 86z" />
<glyph unicode="&#xc8;" d="M850 200v228q0 49 -37 86q-36 36 -85 36h-556q-50 0 -86 -36t-36 -86v-306q0 -49 37 -86q36 -36 85 -36h428v150h-251q-20 0 -34.5 14.5t-14.5 34.5v152q0 20 14.5 34.5t34.5 14.5h202q20 0 34.5 -14.5t14.5 -34.5v-151h250zM450 800v-200h-100v26q0 20 -14.5 34.5 t-34.5 14.5h-1v125h150z" />
<glyph unicode="&#xc9;" d="M850 200v228q0 49 -37 86q-36 36 -85 36h-556q-50 0 -86 -36t-36 -86v-306q0 -49 37 -86q36 -36 85 -36h428v150h-251q-20 0 -34.5 14.5t-14.5 34.5v152q0 20 14.5 34.5t34.5 14.5h202q20 0 34.5 -14.5t14.5 -34.5v-151h250zM450 800v-200h100v26q0 20 14.5 34.5 t34.5 14.5h1v125h-150z" />
<glyph unicode="&#xca;" d="M675 600l-150 150h-150l-150 -150h150l75 75l75 -75h150zM850 200v228q0 49 -37 86q-36 36 -85 36h-556q-50 0 -86 -36t-36 -86v-306q0 -49 37 -86q36 -36 85 -36h428v150h-251q-20 0 -34.5 14.5t-14.5 34.5v152q0 20 14.5 34.5t34.5 14.5h202q20 0 34.5 -14.5 t14.5 -34.5v-151h250z" />
<glyph unicode="&#xcb;" d="M850 600v150h-150v-150h150zM200 600v150h-150v-150h150zM850 200v228q0 49 -37 86q-36 36 -85 36h-556q-50 0 -86 -36t-36 -86v-306q0 -49 37 -86q36 -36 85 -36h428v150h-251q-20 0 -34.5 14.5t-14.5 34.5v152q0 20 14.5 34.5t34.5 14.5h202q20 0 34.5 -14.5 t14.5 -34.5v-151h250z" />
<glyph unicode="&#xcc;" horiz-adv-x="350" d="M300 0v550h-250v-550h250zM250 800v-200h-100v26q0 20 -14 34.5t-34 14.5h-2v125h150z" />
<glyph unicode="&#xcd;" horiz-adv-x="350" d="M300 0h-250v550h250v-550zM100 800h150v-125h-1q-20 0 -34.5 -14.5t-14.5 -34.5v-26h-100v200z" />
<glyph unicode="&#xce;" horiz-adv-x="350" d="M400 600l-150 150h-150l-150 -150h150l75 75l75 -75h150zM300 0v550h-250v-550h250z" />
<glyph unicode="&#xcf;" horiz-adv-x="350" d="M375 600v150h-150v-150h150zM125 600v150h-150v-150h150zM300 0v550h-250v-550h250z" />
<glyph unicode="&#xd0;" />
<glyph unicode="&#xd1;" d="M625 647q-61 -47 -102 -47q-15 0 -35 5q-6 2 -58 26q-36 17 -58 17q-48 0 -97 -48v100q52 48 107 48q26 0 75.5 -25t75.5 -25q39 0 92 48v-99zM850 0h-250v351q0 20 -14.5 34.5t-34.5 14.5h-251v-400h-250v550h678q48 0 85 -37t37 -85v-428z" />
<glyph unicode="&#xd2;" d="M850 122q0 -48 -37 -85t-85 -37h-556q-50 0 -86 36t-36 86v306q0 48 37 85t85 37h556q48 0 85 -37t37 -85v-306zM600 199v152q0 20 -14.5 34.5t-34.5 14.5h-202q-20 0 -34.5 -14.5t-14.5 -34.5v-152q0 -20 14.5 -34.5t34.5 -14.5h202q20 0 34.5 14.5t14.5 34.5zM450 800 h-150v-125h1q20 0 34.5 -14.5t14.5 -34.5v-26h100v200z" />
<glyph unicode="&#xd3;" d="M850 122q0 -48 -37 -85t-85 -37h-556q-50 0 -86 36t-36 86v306q0 48 37 85t85 37h556q48 0 85 -37t37 -85v-306zM600 199v152q0 20 -14.5 34.5t-34.5 14.5h-202q-20 0 -34.5 -14.5t-14.5 -34.5v-152q0 -20 14.5 -34.5t34.5 -14.5h202q20 0 34.5 14.5t14.5 34.5zM450 800 h150v-125h-1q-20 0 -34.5 -14.5t-14.5 -34.5v-26h-100v200z" />
<glyph unicode="&#xd4;" d="M675 600h-150l-75 75l-75 -75h-150l150 150h150zM850 122q0 -48 -37 -85t-85 -37h-556q-50 0 -86 36t-36 86v306q0 48 37 85t85 37h556q48 0 85 -37t37 -85v-306zM600 199v152q0 20 -14.5 34.5t-34.5 14.5h-202q-20 0 -34.5 -14.5t-14.5 -34.5v-152q0 -20 14.5 -34.5 t34.5 -14.5h202q20 0 34.5 14.5t14.5 34.5z" />
<glyph unicode="&#xd5;" d="M625 647q-61 -47 -102 -47q-15 0 -35 5q-6 2 -58 26q-36 17 -58 17q-48 0 -97 -48v100q52 48 107 48q26 0 75.5 -25t75.5 -25q39 0 92 48v-99zM850 122q0 -48 -37 -85t-85 -37h-556q-50 0 -86 36t-36 86v306q0 48 37 85t85 37h556q48 0 85 -37t37 -85v-306zM600 199v152 q0 20 -14.5 34.5t-34.5 14.5h-202q-20 0 -34.5 -14.5t-14.5 -34.5v-152q0 -20 14.5 -34.5t34.5 -14.5h202q20 0 34.5 14.5t14.5 34.5z" />
<glyph unicode="&#xd6;" d="M850 600h-150v150h150v-150zM200 600h-150v150h150v-150zM850 122q0 -48 -37 -85t-85 -37h-556q-50 0 -86 36t-36 86v306q0 48 37 85t85 37h556q48 0 85 -37t37 -85v-306zM600 199v152q0 20 -14.5 34.5t-34.5 14.5h-202q-20 0 -34.5 -14.5t-14.5 -34.5v-152 q0 -20 14.5 -34.5t34.5 -14.5h202q20 0 34.5 14.5t14.5 34.5z" />
<glyph unicode="&#xd7;" />
<glyph unicode="&#xd8;" d="M850 122q0 -48 -37 -85t-85 -37h-556q-50 0 -86 36t-36 86v306q0 50 36 86t86 36h556q48 0 85 -37t37 -85v-306zM600 199v141l-158 -190h109q20 0 34.5 14.5t14.5 34.5zM458 400h-109q-20 0 -34.5 -14.5t-14.5 -34.5v-141z" />
<glyph unicode="&#xd9;" d="M850 0v550h-250v-400h-251q-20 0 -34.5 14.5t-14.5 34.5v351h-250v-428q0 -49 37 -86q36 -36 85 -36h678zM450 800v-200h-100v26q0 20 -14.5 34.5t-34.5 14.5h-1v125h150z" />
<glyph unicode="&#xda;" d="M850 0v550h-250v-400h-251q-20 0 -34.5 14.5t-14.5 34.5v351h-250v-428q0 -49 37 -86q36 -36 85 -36h678zM450 800v-200h100v26q0 20 14.5 34.5t34.5 14.5h1v125h-150z" />
<glyph unicode="&#xdb;" d="M675 600l-150 150h-150l-150 -150h150l75 75l75 -75h150zM850 0v550h-250v-400h-251q-20 0 -34.5 14.5t-14.5 34.5v351h-250v-428q0 -49 37 -86q36 -36 85 -36h678z" />
<glyph unicode="&#xdc;" d="M850 600v150h-150v-150h150zM200 600v150h-150v-150h150zM850 0v550h-250v-400h-251q-20 0 -34.5 14.5t-14.5 34.5v351h-250v-428q0 -49 37 -86q36 -36 85 -36h678z" />
<glyph unicode="&#xdd;" d="M850 -78v628h-250v-400h-251q-20 0 -34.5 14.5t-14.5 34.5v351h-250v-428q0 -50 36 -86t86 -36h428v-1q0 -20 -14.5 -34.5t-34.5 -14.5h-251v-150h428q49 0 86 37q36 36 36 85zM450 800v-200h100v26q0 20 14.5 34.5t34.5 14.5h1v125h-150z" />
<glyph unicode="&#xde;" />
<glyph unicode="&#xdf;" horiz-adv-x="1200" d="M1150 -78q0 -49 -37 -86q-36 -36 -85 -36h-678v150h526q24 0 24 25t-24 25h-404q-50 0 -86 36t-36 86v106q0 50 36 86t86 36h154q24 0 24 25t-24 25h-277q-20 0 -34.5 -14.5t-14.5 -34.5v-351h-250v428q0 50 36 86t86 36h556q48 0 85 -37t37 -85v-106q0 -48 -37 -85 t-85 -37h-104q-24 0 -24 -25t24 -25h404q48 0 85 -37t37 -85v-106z" />
<glyph unicode="&#xe0;" d="M850 0v428q0 49 -37 86q-36 36 -85 36h-556q-50 0 -86 -36t-36 -86v-306q0 -49 37 -86q36 -36 85 -36h378v150h-201q-20 0 -34.5 14.5t-14.5 34.5v152q0 20 14.5 34.5t34.5 14.5h202q20 0 34.5 -14.5t14.5 -34.5v-351h250zM450 800v-200h-100v26q0 20 -14.5 34.5 t-34.5 14.5h-1v125h150z" />
<glyph unicode="&#xe1;" d="M850 0v428q0 49 -37 86q-36 36 -85 36h-556q-50 0 -86 -36t-36 -86v-306q0 -49 37 -86q36 -36 85 -36h378v150h-201q-20 0 -34.5 14.5t-14.5 34.5v152q0 20 14.5 34.5t34.5 14.5h202q20 0 34.5 -14.5t14.5 -34.5v-351h250zM450 800v-200h100v26q0 20 14.5 34.5t34.5 14.5 h1v125h-150z" />
<glyph unicode="&#xe2;" d="M675 600l-150 150h-150l-150 -150h150l75 75l75 -75h150zM850 0v428q0 49 -37 86q-36 36 -85 36h-556q-50 0 -86 -36t-36 -86v-306q0 -49 37 -86q36 -36 85 -36h378v150h-201q-20 0 -34.5 14.5t-14.5 34.5v152q0 20 14.5 34.5t34.5 14.5h202q20 0 34.5 -14.5t14.5 -34.5 v-351h250z" />
<glyph unicode="&#xe3;" d="M625 647v99q-53 -48 -92 -48q-27 0 -76 25t-75 25q-55 0 -107 -48v-100q49 48 97 48q21 0 58 -17q26 -12 40.5 -18.5t17.5 -7.5q22 -5 35 -5q40 0 102 47zM850 0v428q0 49 -37 86q-36 36 -85 36h-556q-50 0 -86 -36t-36 -86v-306q0 -49 37 -86q36 -36 85 -36h378v150 h-201q-20 0 -34.5 14.5t-14.5 34.5v152q0 20 14.5 34.5t34.5 14.5h202q20 0 34.5 -14.5t14.5 -34.5v-351h250z" />
<glyph unicode="&#xe4;" d="M850 600v150h-150v-150h150zM200 600v150h-150v-150h150zM850 0v428q0 49 -37 86q-36 36 -85 36h-556q-50 0 -86 -36t-36 -86v-306q0 -49 37 -86q36 -36 85 -36h378v150h-201q-20 0 -34.5 14.5t-14.5 34.5v152q0 20 14.5 34.5t34.5 14.5h202q20 0 34.5 -14.5t14.5 -34.5 v-351h250z" />
<glyph unicode="&#xe5;" d="M550 675q0 31 -22 53t-53 22t-53 -22t-22 -53t22 -53t53 -22t53 22t22 53zM850 0v428q0 49 -37 86q-36 36 -85 36h-556q-50 0 -86 -36t-36 -86v-306q0 -49 37 -86q36 -36 85 -36h378v150h-201q-20 0 -34.5 14.5t-14.5 34.5v152q0 20 14.5 34.5t34.5 14.5h202 q20 0 34.5 -14.5t14.5 -34.5v-351h250z" />
<glyph unicode="&#xe6;" horiz-adv-x="1250" d="M1200 200v228q0 49 -37 86q-36 36 -85 36h-906q-50 0 -86 -36t-36 -86v-306q0 -50 36 -86t86 -36h278v150h-101q-20 0 -34.5 14.5t-14.5 34.5v152q0 20 14.5 34.5t34.5 14.5h102q20 0 34.5 -14.5t14.5 -34.5v-229q0 -50 36 -86t86 -36h328v150h-151q-20 0 -34.5 14.5 t-14.5 34.5v152q0 20 14.5 34.5t34.5 14.5h102q20 0 34.5 -14.5t14.5 -34.5v-1h-150v-150h400z" />
<glyph unicode="&#xe7;" d="M850 123v127h-250v-51q0 -20 -14.5 -34.5t-34.5 -14.5h-202q-20 0 -34.5 14.5t-14.5 34.5v153q0 20 14.5 34t34.5 14h202q20 0 34.5 -14t14.5 -34v-52h250v129q0 49 -37 85q-36 36 -85 36h-556q-50 0 -86 -36q-36 -35 -36 -85v-306q0 -49 36 -86q37 -37 86 -37h178v-1 q0 -20 -14.5 -34.5t-34.5 -14.5h-101v-150h228q49 0 86 37q36 36 36 85v78h178q49 0 85 37q37 37 37 86z" />
<glyph unicode="&#xe8;" d="M850 200h-500v150h250v1q0 20 -14.5 34.5t-34.5 14.5h-202q-20 0 -34.5 -14.5t-14.5 -34.5v-152q0 -20 14.5 -34.5t34.5 -14.5h251v-150h-428q-50 0 -86 36t-36 86v306q0 50 36 86t86 36h556q48 0 85 -37t37 -85v-228zM450 800h-150v-125h1q20 0 34.5 -14.5t14.5 -34.5 v-26h100v200z" />
<glyph unicode="&#xe9;" d="M850 200h-500v150h250v1q0 20 -14.5 34.5t-34.5 14.5h-202q-20 0 -34.5 -14.5t-14.5 -34.5v-152q0 -20 14.5 -34.5t34.5 -14.5h251v-150h-428q-50 0 -86 36t-36 86v306q0 50 36 86t86 36h556q48 0 85 -37t37 -85v-228zM450 800h150v-125h-1q-20 0 -34.5 -14.5 t-14.5 -34.5v-26h-100v200z" />
<glyph unicode="&#xea;" d="M675 600h-150l-75 75l-75 -75h-150l150 150h150zM850 200h-500v150h250v1q0 20 -14.5 34.5t-34.5 14.5h-202q-20 0 -34.5 -14.5t-14.5 -34.5v-152q0 -20 14.5 -34.5t34.5 -14.5h251v-150h-428q-50 0 -86 36t-36 86v306q0 50 36 86t86 36h556q48 0 85 -37t37 -85v-228z " />
<glyph unicode="&#xeb;" d="M850 600h-150v150h150v-150zM200 600h-150v150h150v-150zM850 200h-500v150h250v1q0 20 -14.5 34.5t-34.5 14.5h-202q-20 0 -34.5 -14.5t-14.5 -34.5v-152q0 -20 14.5 -34.5t34.5 -14.5h251v-150h-428q-50 0 -86 36t-36 86v306q0 50 36 86t86 36h556q48 0 85 -37t37 -85 v-228z" />
<glyph unicode="&#xec;" horiz-adv-x="350" d="M300 0h-250v550h250v-550zM250 800h-150v-125h2q20 0 34 -14.5t14 -34.5v-26h100v200z" />
<glyph unicode="&#xed;" horiz-adv-x="350" d="M300 0h-250v550h250v-550zM100 800h150v-125h-1q-20 0 -34.5 -14.5t-14.5 -34.5v-26h-100v200z" />
<glyph unicode="&#xee;" horiz-adv-x="350" d="M400 600l-150 150h-150l-150 -150h150l75 75l75 -75h150zM300 0v550h-250v-550h250z" />
<glyph unicode="&#xef;" horiz-adv-x="350" d="M375 600v150h-150v-150h150zM125 600v150h-150v-150h150zM300 0v550h-250v-550h250z" />
<glyph unicode="&#xf0;" />
<glyph unicode="&#xf1;" d="M625 647q-61 -47 -102 -47q-15 0 -35 5q-6 2 -58 26q-36 17 -58 17q-48 0 -97 -48v100q52 48 107 48q26 0 75.5 -25t75.5 -25q39 0 92 48v-99zM850 0h-250v351q0 20 -14.5 34.5t-34.5 14.5h-251v-400h-250v550h678q48 0 85 -37t37 -85v-428z" />
<glyph unicode="&#xf2;" d="M850 122q0 -48 -37 -85t-85 -37h-556q-50 0 -86 36t-36 86v306q0 48 37 85t85 37h556q48 0 85 -37t37 -85v-306zM600 199v152q0 20 -14.5 34.5t-34.5 14.5h-202q-20 0 -34.5 -14.5t-14.5 -34.5v-152q0 -20 14.5 -34.5t34.5 -14.5h202q20 0 34.5 14.5t14.5 34.5zM450 800 h-150v-125h1q20 0 34.5 -14.5t14.5 -34.5v-26h100v200z" />
<glyph unicode="&#xf3;" d="M850 122q0 -48 -37 -85t-85 -37h-556q-50 0 -86 36t-36 86v306q0 48 37 85t85 37h556q48 0 85 -37t37 -85v-306zM600 199v152q0 20 -14.5 34.5t-34.5 14.5h-202q-20 0 -34.5 -14.5t-14.5 -34.5v-152q0 -20 14.5 -34.5t34.5 -14.5h202q20 0 34.5 14.5t14.5 34.5zM450 800 h150v-125h-1q-20 0 -34.5 -14.5t-14.5 -34.5v-26h-100v200z" />
<glyph unicode="&#xf4;" d="M675 600h-150l-75 75l-75 -75h-150l150 150h150zM850 122q0 -48 -37 -85t-85 -37h-556q-50 0 -86 36t-36 86v306q0 48 37 85t85 37h556q48 0 85 -37t37 -85v-306zM600 199v152q0 20 -14.5 34.5t-34.5 14.5h-202q-20 0 -34.5 -14.5t-14.5 -34.5v-152q0 -20 14.5 -34.5 t34.5 -14.5h202q20 0 34.5 14.5t14.5 34.5z" />
<glyph unicode="&#xf5;" d="M625 647q-61 -47 -102 -47q-15 0 -35 5q-6 2 -58 26q-36 17 -58 17q-48 0 -97 -48v100q52 48 107 48q26 0 75.5 -25t75.5 -25q39 0 92 48v-99zM850 122q0 -48 -37 -85t-85 -37h-556q-50 0 -86 36t-36 86v306q0 48 37 85t85 37h556q48 0 85 -37t37 -85v-306zM600 199v152 q0 20 -14.5 34.5t-34.5 14.5h-202q-20 0 -34.5 -14.5t-14.5 -34.5v-152q0 -20 14.5 -34.5t34.5 -14.5h202q20 0 34.5 14.5t14.5 34.5z" />
<glyph unicode="&#xf6;" d="M850 600h-150v150h150v-150zM200 600h-150v150h150v-150zM850 122q0 -48 -37 -85t-85 -37h-556q-50 0 -86 36t-36 86v306q0 48 37 85t85 37h556q48 0 85 -37t37 -85v-306zM600 199v152q0 20 -14.5 34.5t-34.5 14.5h-202q-20 0 -34.5 -14.5t-14.5 -34.5v-152 q0 -20 14.5 -34.5t34.5 -14.5h202q20 0 34.5 14.5t14.5 34.5z" />
<glyph unicode="&#xf7;" />
<glyph unicode="&#xf8;" d="M850 122q0 -48 -37 -85t-85 -37h-556q-50 0 -86 36t-36 86v306q0 50 36 86t86 36h556q48 0 85 -37t37 -85v-306zM600 199v141l-158 -190h109q20 0 34.5 14.5t14.5 34.5zM458 400h-109q-20 0 -34.5 -14.5t-14.5 -34.5v-141z" />
<glyph unicode="&#xf9;" d="M850 0v550h-250v-400h-251q-20 0 -34.5 14.5t-14.5 34.5v351h-250v-428q0 -49 37 -86q36 -36 85 -36h678zM450 800v-200h-100v26q0 20 -14.5 34.5t-34.5 14.5h-1v125h150z" />
<glyph unicode="&#xfa;" d="M850 0v550h-250v-400h-251q-20 0 -34.5 14.5t-14.5 34.5v351h-250v-428q0 -49 37 -86q36 -36 85 -36h678zM450 800v-200h100v26q0 20 14.5 34.5t34.5 14.5h1v125h-150z" />
<glyph unicode="&#xfb;" d="M675 600l-150 150h-150l-150 -150h150l75 75l75 -75h150zM850 0v550h-250v-400h-251q-20 0 -34.5 14.5t-14.5 34.5v351h-250v-428q0 -49 37 -86q36 -36 85 -36h678z" />
<glyph unicode="&#xfc;" d="M850 600v150h-150v-150h150zM200 600v150h-150v-150h150zM850 0v550h-250v-400h-251q-20 0 -34.5 14.5t-14.5 34.5v351h-250v-428q0 -49 37 -86q36 -36 85 -36h678z" />
<glyph unicode="&#xfd;" d="M850 -78v628h-250v-400h-251q-20 0 -34.5 14.5t-14.5 34.5v351h-250v-428q0 -50 36 -86t86 -36h428v-1q0 -20 -14.5 -34.5t-34.5 -14.5h-251v-150h428q49 0 86 37q36 36 36 85zM450 800v-200h100v26q0 20 14.5 34.5t34.5 14.5h1v125h-150z" />
<glyph unicode="&#xfe;" />
<glyph unicode="&#xff;" d="M850 600v150h-150v-150h150zM200 600v150h-150v-150h150zM850 -78v628h-250v-400h-251q-20 0 -34.5 14.5t-14.5 34.5v351h-250v-428q0 -50 36 -86t86 -36h428v-1q0 -20 -14.5 -34.5t-34.5 -14.5h-251v-150h428q49 0 86 37q36 36 36 85z" />
<glyph unicode="&#x152;" horiz-adv-x="1250" d="M1200 200h-400v150h150v1q0 20 -14.5 34.5t-34.5 14.5h-102q-20 0 -34.5 -14.5t-14.5 -34.5v-152q0 -20 14.5 -34.5t34.5 -14.5h151v-150h-778q-50 0 -86 36t-36 86v306q0 49 36.5 85.5t85.5 36.5h906q48 0 85 -37t37 -85v-228zM500 199v152q0 20 -14.5 34.5t-34.5 14.5 h-102q-20 0 -34.5 -14.5t-14.5 -34.5v-152q0 -20 14.5 -34.5t34.5 -14.5h102q20 0 34.5 14.5t14.5 34.5z" />
<glyph unicode="&#x153;" horiz-adv-x="1250" d="M1200 200h-400v150h150v1q0 20 -14.5 34.5t-34.5 14.5h-102q-20 0 -34.5 -14.5t-14.5 -34.5v-152q0 -20 14.5 -34.5t34.5 -14.5h151v-150h-778q-50 0 -86 36t-36 86v306q0 49 36.5 85.5t85.5 36.5h906q48 0 85 -37t37 -85v-228zM500 199v152q0 20 -14.5 34.5t-34.5 14.5 h-102q-20 0 -34.5 -14.5t-14.5 -34.5v-152q0 -20 14.5 -34.5t34.5 -14.5h102q20 0 34.5 14.5t14.5 34.5z" />
<glyph unicode="&#x160;" />
<glyph unicode="&#x161;" />
<glyph unicode="&#x178;" d="M850 600v150h-150v-150h150zM200 600v150h-150v-150h150zM850 -78v628h-250v-400h-251q-20 0 -34.5 14.5t-14.5 34.5v351h-250v-428q0 -50 36 -86t86 -36h428v-1q0 -20 -14.5 -34.5t-34.5 -14.5h-251v-150h428q49 0 86 37q36 36 36 85z" />
<glyph unicode="&#x192;" />
<glyph unicode="&#x2c6;" />
<glyph unicode="&#x2dc;" />
<glyph unicode="&#x2013;" />
<glyph unicode="&#x2014;" />
<glyph unicode="&#x2018;" />
<glyph unicode="&#x2019;" />
<glyph unicode="&#x201a;" />
<glyph unicode="&#x201c;" />
<glyph unicode="&#x201d;" />
<glyph unicode="&#x201e;" />
<glyph unicode="&#x2020;" />
<glyph unicode="&#x2021;" />
<glyph unicode="&#x2022;" />
<glyph unicode="&#x2026;" />
<glyph unicode="&#x2030;" />
<glyph unicode="&#x2039;" />
<glyph unicode="&#x203a;" />
<glyph unicode="&#x2122;" />
<glyph unicode="&#x2212;" />
<glyph unicode="&#xe000;" horiz-adv-x="550" d="M0 550h550v-550h-550v550z" />
<glyph horiz-adv-x="500" />
<glyph horiz-adv-x="500" />
<glyph />
<glyph horiz-adv-x="500" />
<glyph />
<glyph />
<glyph />
<glyph />
<glyph />
<glyph />
<glyph />
<glyph />
<glyph horiz-adv-x="500" />
<glyph horiz-adv-x="500" />
<glyph horiz-adv-x="0" />
</font>
</defs>
</svg>
